<svg width="29" height="24" viewBox="0 0 29 24" fill="none" xmlns="http://www.w3.org/2000/svg">
<path d="M0.750122 5.17578L2.83013 5.5316L3.79313 16.8715C3.87013 17.7976 4.65313 18.5082 5.59313 18.5053H16.5022C17.3992 18.5072 18.1602 17.8549 18.2872 16.9772L19.2362 10.4953C19.3422 9.77083 18.8332 9.09872 18.1012 8.99395C18.0372 8.98505 3.16413 8.98011 3.16413 8.98011" stroke="#363853" stroke-width="1.5" stroke-linecap="round" stroke-linejoin="round"/>
<path d="M12.1251 12.6334H14.8981" stroke="#363853" stroke-width="1.5" stroke-linecap="round" stroke-linejoin="round"/>
<path fill-rule="evenodd" clip-rule="evenodd" d="M5.15442 21.9316C5.45539 21.9316 5.69836 22.1729 5.69836 22.4696C5.69836 22.7673 5.45539 23.0085 5.15442 23.0085C4.85345 23.0085 4.61047 22.7673 4.61047 22.4696C4.61047 22.1729 4.85345 21.9316 5.15442 21.9316Z" stroke="#363853" stroke-width="1.5" stroke-linecap="round" stroke-linejoin="round"/>
<path fill-rule="evenodd" clip-rule="evenodd" d="M16.4347 21.9316C16.7357 21.9316 16.9797 22.1729 16.9797 22.4696C16.9797 22.7673 16.7357 23.0085 16.4347 23.0085C16.1337 23.0085 15.8907 22.7673 15.8907 22.4696C15.8907 22.1729 16.1337 21.9316 16.4347 21.9316Z" stroke="#363853" stroke-width="1.5" stroke-linecap="round" stroke-linejoin="round"/>
<circle cx="21.7501" cy="7" r="7" fill="#FF6838"/>
<path d="M22.7601 11C22.6935 11 22.6368 10.98 22.5901 10.94C22.5501 10.8933 22.5301 10.8367 22.5301 10.77V9.33H19.2901C19.2235 9.33 19.1668 9.31 19.1201 9.27C19.0801 9.22333 19.0601 9.16667 19.0601 9.1V8.7C19.0601 8.6 19.0968 8.5 19.1701 8.4L22.1701 4.17C22.2035 4.11667 22.2535 4.07667 22.3201 4.05C22.3868 4.01667 22.4601 4 22.5401 4H23.2601C23.3268 4 23.3801 4.02333 23.4201 4.07C23.4668 4.11 23.4901 4.16333 23.4901 4.23V8.46H24.3901C24.4568 8.46 24.5135 8.48333 24.5601 8.53C24.6068 8.57 24.6301 8.62333 24.6301 8.69V9.1C24.6301 9.16667 24.6068 9.22333 24.5601 9.27C24.5201 9.31 24.4668 9.33 24.4001 9.33H23.4901V10.77C23.4901 10.8367 23.4668 10.8933 23.4201 10.94C23.3801 10.98 23.3268 11 23.2601 11H22.7601ZM22.5401 8.48V5.05L20.1301 8.48H22.5401Z" fill="white"/>
</svg>
