<svg width="15" height="14" viewBox="0 0 15 14" fill="none" xmlns="http://www.w3.org/2000/svg">
<path d="M8.94191 13.6495C8.68258 13.6495 8.44321 13.511 8.32627 13.29L6.28469 9.4316C6.17257 9.2197 6.19183 8.9662 6.33422 8.77055L9.62977 4.54945L5.1621 7.66295C4.95505 7.79815 4.68678 7.81505 4.46254 7.70975L0.380065 5.7812C0.135185 5.66485 -0.0140815 5.4224 0.00105155 5.1637C0.0154967 4.905 0.192278 4.6788 0.449539 4.58975L13.519 0.0397532C13.77 -0.0466968 14.0527 0.00985311 14.2433 0.189903C14.4331 0.368653 14.495 0.636453 14.4022 0.874353L9.58712 13.2244C9.4922 13.4675 9.25351 13.6345 8.97974 13.6482C8.96736 13.6488 8.95429 13.6495 8.94191 13.6495Z" fill="white"/>
</svg>
