<svg width="200" height="39" viewBox="0 0 200 39" fill="none" xmlns="http://www.w3.org/2000/svg">
<path d="M10.593 31.33C8.547 31.33 6.831 31.033 5.445 30.439C4.081 29.823 3.036 29.031 2.31 28.063C1.606 27.073 1.232 26.039 1.188 24.961C1.188 24.763 1.254 24.598 1.386 24.466C1.518 24.334 1.683 24.268 1.881 24.268H4.818C5.104 24.268 5.313 24.334 5.445 24.466C5.599 24.576 5.731 24.719 5.841 24.895C5.973 25.313 6.226 25.731 6.6 26.149C6.974 26.545 7.48 26.875 8.118 27.139C8.778 27.403 9.603 27.535 10.593 27.535C12.177 27.535 13.354 27.271 14.124 26.743C14.916 26.215 15.312 25.5 15.312 24.598C15.312 23.96 15.103 23.454 14.685 23.08C14.267 22.684 13.618 22.332 12.738 22.024C11.88 21.694 10.736 21.353 9.306 21.001C7.656 20.605 6.27 20.132 5.148 19.582C4.048 19.01 3.212 18.295 2.64 17.437C2.09 16.579 1.815 15.49 1.815 14.17C1.815 12.894 2.156 11.761 2.838 10.771C3.542 9.781 4.532 9 5.808 8.428C7.106 7.856 8.646 7.57 10.428 7.57C11.858 7.57 13.123 7.768 14.223 8.164C15.323 8.538 16.236 9.044 16.962 9.682C17.688 10.298 18.238 10.969 18.612 11.695C19.008 12.399 19.217 13.092 19.239 13.774C19.239 13.95 19.173 14.115 19.041 14.269C18.931 14.401 18.766 14.467 18.546 14.467H15.477C15.301 14.467 15.125 14.423 14.949 14.335C14.773 14.247 14.63 14.082 14.52 13.84C14.388 13.158 13.959 12.575 13.233 12.091C12.507 11.607 11.572 11.365 10.428 11.365C9.24 11.365 8.283 11.585 7.557 12.025C6.831 12.465 6.468 13.147 6.468 14.071C6.468 14.687 6.644 15.204 6.996 15.622C7.37 16.018 7.953 16.37 8.745 16.678C9.559 16.986 10.626 17.316 11.946 17.668C13.816 18.086 15.345 18.57 16.533 19.12C17.721 19.67 18.59 20.374 19.14 21.232C19.69 22.068 19.965 23.135 19.965 24.433C19.965 25.885 19.569 27.128 18.777 28.162C18.007 29.174 16.918 29.955 15.51 30.505C14.102 31.055 12.463 31.33 10.593 31.33ZM25.5619 31C25.3419 31 25.1549 30.923 25.0009 30.769C24.8469 30.615 24.7699 30.428 24.7699 30.208V14.632C24.7699 14.412 24.8469 14.225 25.0009 14.071C25.1549 13.917 25.3419 13.84 25.5619 13.84H28.3009C28.5429 13.84 28.7299 13.917 28.8619 14.071C29.0159 14.225 29.0929 14.412 29.0929 14.632V30.208C29.0929 30.428 29.0159 30.615 28.8619 30.769C28.7299 30.923 28.5429 31 28.3009 31H25.5619ZM25.4299 11.002C25.1879 11.002 24.9899 10.936 24.8359 10.804C24.7039 10.65 24.6379 10.452 24.6379 10.21V7.834C24.6379 7.614 24.7039 7.427 24.8359 7.273C24.9899 7.119 25.1879 7.042 25.4299 7.042H28.4329C28.6749 7.042 28.8729 7.119 29.0269 7.273C29.1809 7.427 29.2579 7.614 29.2579 7.834V10.21C29.2579 10.452 29.1809 10.65 29.0269 10.804C28.8729 10.936 28.6749 11.002 28.4329 11.002H25.4299ZM35.682 31C35.462 31 35.275 30.923 35.121 30.769C34.967 30.615 34.89 30.428 34.89 30.208V14.632C34.89 14.412 34.967 14.225 35.121 14.071C35.275 13.917 35.462 13.84 35.682 13.84H38.256C38.476 13.84 38.663 13.917 38.817 14.071C38.971 14.225 39.048 14.412 39.048 14.632V15.754C39.51 15.138 40.126 14.621 40.896 14.203C41.688 13.763 42.623 13.532 43.701 13.51C46.209 13.466 47.958 14.445 48.948 16.447C49.454 15.567 50.18 14.863 51.126 14.335C52.094 13.785 53.161 13.51 54.327 13.51C55.471 13.51 56.505 13.774 57.429 14.302C58.375 14.83 59.112 15.633 59.64 16.711C60.19 17.767 60.465 19.109 60.465 20.737V30.208C60.465 30.428 60.388 30.615 60.234 30.769C60.08 30.923 59.893 31 59.673 31H56.967C56.747 31 56.56 30.923 56.406 30.769C56.252 30.615 56.175 30.428 56.175 30.208V21.001C56.175 20.011 56.032 19.23 55.746 18.658C55.46 18.064 55.075 17.646 54.591 17.404C54.107 17.162 53.568 17.041 52.974 17.041C52.49 17.041 52.006 17.162 51.522 17.404C51.038 17.646 50.642 18.064 50.334 18.658C50.026 19.23 49.872 20.011 49.872 21.001V30.208C49.872 30.428 49.795 30.615 49.641 30.769C49.487 30.923 49.3 31 49.08 31H46.374C46.132 31 45.934 30.923 45.78 30.769C45.648 30.615 45.582 30.428 45.582 30.208V21.001C45.582 20.011 45.428 19.23 45.12 18.658C44.812 18.064 44.416 17.646 43.932 17.404C43.448 17.162 42.931 17.041 42.381 17.041C41.875 17.041 41.38 17.173 40.896 17.437C40.412 17.679 40.016 18.086 39.708 18.658C39.4 19.23 39.246 20.011 39.246 21.001V30.208C39.246 30.428 39.169 30.615 39.015 30.769C38.861 30.923 38.674 31 38.454 31H35.682ZM66.9114 37.27C66.6914 37.27 66.5044 37.193 66.3504 37.039C66.1964 36.885 66.1194 36.698 66.1194 36.478V14.632C66.1194 14.412 66.1964 14.225 66.3504 14.071C66.5044 13.917 66.6914 13.84 66.9114 13.84H69.5184C69.7604 13.84 69.9474 13.917 70.0794 14.071C70.2334 14.225 70.3104 14.412 70.3104 14.632V15.952C70.8384 15.248 71.5314 14.665 72.3894 14.203C73.2474 13.741 74.3144 13.51 75.5904 13.51C76.7564 13.51 77.7684 13.697 78.6264 14.071C79.4844 14.445 80.1994 14.984 80.7714 15.688C81.3434 16.37 81.7834 17.184 82.0914 18.13C82.3994 19.076 82.5754 20.121 82.6194 21.265C82.6414 21.639 82.6524 22.024 82.6524 22.42C82.6524 22.816 82.6414 23.212 82.6194 23.608C82.5974 24.708 82.4324 25.731 82.1244 26.677C81.8164 27.601 81.3654 28.415 80.7714 29.119C80.1994 29.801 79.4844 30.34 78.6264 30.736C77.7684 31.132 76.7564 31.33 75.5904 31.33C74.4024 31.33 73.3904 31.121 72.5544 30.703C71.7184 30.263 71.0364 29.691 70.5084 28.987V36.478C70.5084 36.698 70.4314 36.885 70.2774 37.039C70.1454 37.193 69.9584 37.27 69.7164 37.27H66.9114ZM74.3694 27.799C75.3154 27.799 76.0524 27.601 76.5804 27.205C77.1084 26.787 77.4824 26.248 77.7024 25.588C77.9444 24.928 78.0874 24.202 78.1314 23.41C78.1754 22.75 78.1754 22.09 78.1314 21.43C78.0874 20.638 77.9444 19.912 77.7024 19.252C77.4824 18.592 77.1084 18.064 76.5804 17.668C76.0524 17.25 75.3154 17.041 74.3694 17.041C73.4674 17.041 72.7304 17.25 72.1584 17.668C71.6084 18.086 71.2014 18.625 70.9374 19.285C70.6954 19.923 70.5524 20.583 70.5084 21.265C70.4864 21.661 70.4754 22.079 70.4754 22.519C70.4754 22.959 70.4864 23.388 70.5084 23.806C70.5304 24.466 70.6844 25.104 70.9704 25.72C71.2564 26.314 71.6744 26.809 72.2244 27.205C72.7744 27.601 73.4894 27.799 74.3694 27.799ZM88.6009 31C88.3809 31 88.1939 30.923 88.0399 30.769C87.8859 30.615 87.8089 30.428 87.8089 30.208V8.362C87.8089 8.142 87.8859 7.955 88.0399 7.801C88.1939 7.647 88.3809 7.57 88.6009 7.57H91.3399C91.5599 7.57 91.7469 7.647 91.9009 7.801C92.0549 7.955 92.1319 8.142 92.1319 8.362V30.208C92.1319 30.428 92.0549 30.615 91.9009 30.769C91.7469 30.923 91.5599 31 91.3399 31H88.6009ZM105.32 31.33C102.878 31.33 100.942 30.626 99.5123 29.218C98.0823 27.81 97.3123 25.808 97.2023 23.212C97.1803 22.992 97.1693 22.717 97.1693 22.387C97.1693 22.035 97.1803 21.76 97.2023 21.562C97.2903 19.912 97.6643 18.482 98.3243 17.272C99.0063 16.062 99.9413 15.138 101.129 14.5C102.317 13.84 103.714 13.51 105.32 13.51C107.102 13.51 108.598 13.884 109.808 14.632C111.018 15.358 111.931 16.381 112.547 17.701C113.163 18.999 113.471 20.506 113.471 22.222V22.915C113.471 23.135 113.394 23.322 113.24 23.476C113.086 23.63 112.888 23.707 112.646 23.707H101.69C101.69 23.707 101.69 23.74 101.69 23.806C101.69 23.872 101.69 23.927 101.69 23.971C101.712 24.741 101.855 25.456 102.119 26.116C102.405 26.754 102.812 27.271 103.34 27.667C103.89 28.063 104.539 28.261 105.287 28.261C105.903 28.261 106.42 28.173 106.838 27.997C107.256 27.799 107.597 27.579 107.861 27.337C108.125 27.095 108.312 26.897 108.422 26.743C108.62 26.479 108.774 26.325 108.884 26.281C109.016 26.215 109.203 26.182 109.445 26.182H112.283C112.503 26.182 112.679 26.248 112.811 26.38C112.965 26.512 113.031 26.677 113.009 26.875C112.987 27.227 112.8 27.656 112.448 28.162C112.118 28.668 111.634 29.163 110.996 29.647C110.358 30.131 109.555 30.538 108.587 30.868C107.641 31.176 106.552 31.33 105.32 31.33ZM101.69 20.935H108.983V20.836C108.983 19.978 108.84 19.23 108.554 18.592C108.268 17.954 107.85 17.448 107.3 17.074C106.75 16.7 106.09 16.513 105.32 16.513C104.55 16.513 103.89 16.7 103.34 17.074C102.79 17.448 102.372 17.954 102.086 18.592C101.822 19.23 101.69 19.978 101.69 20.836V20.935Z" fill="#FF6838"/>
<path d="M119.581 31C119.361 31 119.174 30.923 119.02 30.769C118.866 30.615 118.789 30.428 118.789 30.208V8.725C118.789 8.483 118.866 8.285 119.02 8.131C119.174 7.977 119.361 7.9 119.581 7.9H133.903C134.145 7.9 134.343 7.977 134.497 8.131C134.651 8.285 134.728 8.483 134.728 8.725V11.035C134.728 11.277 134.651 11.475 134.497 11.629C134.343 11.761 134.145 11.827 133.903 11.827H123.31V18.097H133.243C133.485 18.097 133.683 18.174 133.837 18.328C133.991 18.482 134.068 18.68 134.068 18.922V21.232C134.068 21.452 133.991 21.639 133.837 21.793C133.683 21.947 133.485 22.024 133.243 22.024H123.31V30.208C123.31 30.428 123.233 30.615 123.079 30.769C122.925 30.923 122.727 31 122.485 31H119.581ZM146.899 31.33C145.139 31.33 143.654 31.022 142.444 30.406C141.256 29.79 140.343 28.921 139.705 27.799C139.089 26.677 138.737 25.368 138.649 23.872C138.627 23.476 138.616 22.992 138.616 22.42C138.616 21.848 138.627 21.364 138.649 20.968C138.737 19.45 139.1 18.141 139.738 17.041C140.398 15.919 141.322 15.05 142.51 14.434C143.72 13.818 145.183 13.51 146.899 13.51C148.615 13.51 150.067 13.818 151.255 14.434C152.465 15.05 153.389 15.919 154.027 17.041C154.687 18.141 155.061 19.45 155.149 20.968C155.171 21.364 155.182 21.848 155.182 22.42C155.182 22.992 155.171 23.476 155.149 23.872C155.061 25.368 154.698 26.677 154.06 27.799C153.444 28.921 152.531 29.79 151.321 30.406C150.133 31.022 148.659 31.33 146.899 31.33ZM146.899 28.063C148.065 28.063 148.967 27.7 149.605 26.974C150.243 26.226 150.595 25.137 150.661 23.707C150.683 23.377 150.694 22.948 150.694 22.42C150.694 21.892 150.683 21.463 150.661 21.133C150.595 19.725 150.243 18.647 149.605 17.899C148.967 17.151 148.065 16.777 146.899 16.777C145.733 16.777 144.831 17.151 144.193 17.899C143.555 18.647 143.203 19.725 143.137 21.133C143.115 21.463 143.104 21.892 143.104 22.42C143.104 22.948 143.115 23.377 143.137 23.707C143.203 25.137 143.555 26.226 144.193 26.974C144.831 27.7 145.733 28.063 146.899 28.063ZM167.848 31.33C166.088 31.33 164.603 31.022 163.393 30.406C162.205 29.79 161.292 28.921 160.654 27.799C160.038 26.677 159.686 25.368 159.598 23.872C159.576 23.476 159.565 22.992 159.565 22.42C159.565 21.848 159.576 21.364 159.598 20.968C159.686 19.45 160.049 18.141 160.687 17.041C161.347 15.919 162.271 15.05 163.459 14.434C164.669 13.818 166.132 13.51 167.848 13.51C169.564 13.51 171.016 13.818 172.204 14.434C173.414 15.05 174.338 15.919 174.976 17.041C175.636 18.141 176.01 19.45 176.098 20.968C176.12 21.364 176.131 21.848 176.131 22.42C176.131 22.992 176.12 23.476 176.098 23.872C176.01 25.368 175.647 26.677 175.009 27.799C174.393 28.921 173.48 29.79 172.27 30.406C171.082 31.022 169.608 31.33 167.848 31.33ZM167.848 28.063C169.014 28.063 169.916 27.7 170.554 26.974C171.192 26.226 171.544 25.137 171.61 23.707C171.632 23.377 171.643 22.948 171.643 22.42C171.643 21.892 171.632 21.463 171.61 21.133C171.544 19.725 171.192 18.647 170.554 17.899C169.916 17.151 169.014 16.777 167.848 16.777C166.682 16.777 165.78 17.151 165.142 17.899C164.504 18.647 164.152 19.725 164.086 21.133C164.064 21.463 164.053 21.892 164.053 22.42C164.053 22.948 164.064 23.377 164.086 23.707C164.152 25.137 164.504 26.226 165.142 26.974C165.78 27.7 166.682 28.063 167.848 28.063ZM187.575 31.33C186.431 31.33 185.419 31.143 184.539 30.769C183.681 30.373 182.966 29.823 182.394 29.119C181.822 28.415 181.382 27.59 181.074 26.644C180.766 25.676 180.59 24.62 180.546 23.476C180.524 23.08 180.513 22.728 180.513 22.42C180.513 22.09 180.524 21.727 180.546 21.331C180.59 20.231 180.755 19.208 181.041 18.262C181.349 17.316 181.789 16.491 182.361 15.787C182.955 15.061 183.681 14.5 184.539 14.104C185.419 13.708 186.431 13.51 187.575 13.51C188.763 13.51 189.764 13.719 190.578 14.137C191.414 14.533 192.107 15.05 192.657 15.688V8.362C192.657 8.142 192.723 7.955 192.855 7.801C193.009 7.647 193.207 7.57 193.449 7.57H196.254C196.474 7.57 196.661 7.647 196.815 7.801C196.969 7.955 197.046 8.142 197.046 8.362V30.208C197.046 30.428 196.969 30.615 196.815 30.769C196.661 30.923 196.474 31 196.254 31H193.647C193.405 31 193.207 30.923 193.053 30.769C192.921 30.615 192.855 30.428 192.855 30.208V28.987C192.305 29.669 191.601 30.23 190.743 30.67C189.907 31.11 188.851 31.33 187.575 31.33ZM188.796 27.799C189.72 27.799 190.457 27.59 191.007 27.172C191.557 26.754 191.964 26.226 192.228 25.588C192.492 24.928 192.635 24.257 192.657 23.575C192.679 23.179 192.69 22.761 192.69 22.321C192.69 21.859 192.679 21.43 192.657 21.034C192.635 20.374 192.481 19.747 192.195 19.153C191.909 18.537 191.491 18.031 190.941 17.635C190.391 17.239 189.676 17.041 188.796 17.041C187.872 17.041 187.135 17.25 186.585 17.668C186.057 18.064 185.672 18.592 185.43 19.252C185.188 19.912 185.045 20.638 185.001 21.43C184.979 22.09 184.979 22.75 185.001 23.41C185.045 24.202 185.188 24.928 185.43 25.588C185.672 26.248 186.057 26.787 186.585 27.205C187.135 27.601 187.872 27.799 188.796 27.799Z" fill="#363853"/>
</svg>
